<svg width="26" height="26" viewBox="0 0 26 26" fill="none" xmlns="http://www.w3.org/2000/svg">
<g clip-path="url(#clip0_195_3010)">
<path d="M24.7195 23.3067L18.7554 17.3426C20.3807 15.3548 21.1798 12.8184 20.9874 10.258C20.7951 7.69754 19.6259 5.309 17.7219 3.5864C15.8178 1.86381 13.3245 0.938951 10.7576 1.00313C8.19079 1.06731 5.74681 2.11562 3.93121 3.93121C2.11562 5.74681 1.06731 8.19079 1.00313 10.7576C0.938951 13.3245 1.86381 15.8178 3.5864 17.7219C5.309 19.6259 7.69754 20.7951 10.258 20.9874C12.8184 21.1798 15.3548 20.3807 17.3426 18.7554L23.3067 24.7195C23.4951 24.9015 23.7475 25.0022 24.0095 25C24.2715 24.9977 24.5221 24.8926 24.7073 24.7073C24.8926 24.5221 24.9977 24.2715 25 24.0095C25.0022 23.7475 24.9015 23.4951 24.7195 23.3067ZM11.0238 19.0172C9.44282 19.0172 7.89737 18.5484 6.58286 17.6701C5.26835 16.7917 4.24381 15.5433 3.6388 14.0827C3.0338 12.6221 2.8755 11.0149 3.18393 9.46433C3.49236 7.91376 4.25366 6.48946 5.37156 5.37156C6.48946 4.25366 7.91376 3.49236 9.46433 3.18393C11.0149 2.8755 12.6221 3.0338 14.0827 3.6388C15.5433 4.24381 16.7917 5.26835 17.6701 6.58286C18.5484 7.89737 19.0172 9.44282 19.0172 11.0238C19.0148 13.143 18.1719 15.1748 16.6734 16.6734C15.1748 18.1719 13.143 19.0148 11.0238 19.0172Z" fill="#1A1A1A" stroke="#1A1A1A" stroke-width="0.2"/>
</g>
<defs>
<clipPath id="clip0_195_3010">
<rect width="26" height="26" fill="white"/>
</clipPath>
</defs>
</svg>
