<svg width="14" height="13" viewBox="0 0 14 13" fill="none" xmlns="http://www.w3.org/2000/svg">
<path d="M13.7408 2.81191L8.74084 0.0619144C8.66701 0.0212977 8.58411 0 8.49984 0C8.41558 0 8.33268 0.0212977 8.25884 0.0619144L3.25884 2.81191C3.18045 2.85508 3.11508 2.91849 3.06955 2.99553C3.02402 3.07257 3 3.16042 3 3.24991C3 3.33941 3.02402 3.42726 3.06955 3.5043C3.11508 3.58134 3.18045 3.64475 3.25884 3.68791L7.99984 6.29541V11.6549L6.48184 10.8199L5.99984 11.6954L8.25884 12.9379C8.33268 12.9785 8.41558 12.9998 8.49984 12.9998C8.58411 12.9998 8.66701 12.9785 8.74084 12.9379L13.7408 10.1879C13.8193 10.1448 13.8847 10.0814 13.9302 10.0043C13.9758 9.92728 13.9998 9.83942 13.9998 9.74991V3.24991C13.9998 3.16041 13.9758 3.07255 13.9302 2.9955C13.8847 2.91846 13.8193 2.85506 13.7408 2.81191ZM8.49984 1.07091L12.4623 3.24991L8.49984 5.42891L4.53734 3.24991L8.49984 1.07091ZM12.9998 9.45441L8.99984 11.6544V6.29491L12.9998 4.09491V9.45441Z" fill="black"/>
<path d="M4 6.49992H0V5.49992H4V6.49992ZM5 10.4999H1V9.49992H5V10.4999ZM6 8.49992H2V7.49992H6V8.49992Z" fill="black"/>
</svg>
