<svg width="10" height="11" viewBox="0 0 10 11" fill="none" xmlns="http://www.w3.org/2000/svg">
<path d="M8.5 6.25V3.5C8.5 2.086 8.5 1.3785 8.0605 0.939502C7.6215 0.500002 6.914 0.500002 5.5 0.500002H3.5C2.086 0.500002 1.3785 0.500002 0.9395 0.939502C0.5 1.3785 0.5 2.086 0.5 3.5V7.5C0.5 8.914 0.5 9.6215 0.9395 10.0605C1.3785 10.5 2.086 10.5 3.5 10.5H5" stroke="black" stroke-linecap="round" stroke-linejoin="round"/>
<path d="M2.5 7H4.5M2.5 5H6.5M6 9.5C6 9.5 6.5 9.5 7 10.5C7 10.5 8.0885 8 9.5 7.5M6.25 0.500002H2.75C2.75 1.207 2.75 1.5605 2.97 1.78C3.189 2 3.5425 2 4.25 2H4.75C5.457 2 5.8105 2 6.03 1.78C6.25 1.5605 6.25 1.207 6.25 0.500002Z" stroke="black" stroke-linecap="round" stroke-linejoin="round"/>
</svg>
