<svg width="13" height="10" viewBox="0 0 13 10" fill="none" xmlns="http://www.w3.org/2000/svg">
<g clip-path="url(#clip0_258_5091)">
<path d="M7.72 1.28082C7.58752 1.13865 7.5154 0.950602 7.51883 0.756301C7.52225 0.561999 7.60097 0.376614 7.73838 0.239201C7.87579 0.101788 8.06118 0.0230763 8.25548 0.0196481C8.44978 0.0162199 8.63783 0.0883431 8.78 0.220823L12.78 4.22082C12.8497 4.29047 12.905 4.37317 12.9427 4.4642C12.9804 4.55522 12.9998 4.65279 12.9998 4.75132C12.9998 4.84985 12.9804 4.94742 12.9427 5.03845C12.905 5.12947 12.8497 5.21217 12.78 5.28182L8.78 9.28182C8.63848 9.41838 8.449 9.49388 8.25235 9.49208C8.0557 9.49028 7.86763 9.41132 7.72864 9.27219C7.58965 9.13307 7.51086 8.94493 7.50924 8.74828C7.50763 8.55163 7.58331 8.36221 7.72 8.22082L10.44 5.50082H0.75C0.551088 5.50082 0.360322 5.42181 0.21967 5.28115C0.0790176 5.1405 0 4.94974 0 4.75082C0 4.55191 0.0790176 4.36115 0.21967 4.22049C0.360322 4.07984 0.551088 4.00082 0.75 4.00082H10.439L7.72 1.28082Z" fill="black"/>
</g>
<defs>
<clipPath id="clip0_258_5091">
<rect width="13" height="9.5" fill="white"/>
</clipPath>
</defs>
</svg>
