<svg width="87" height="88" viewBox="0 0 87 88" fill="none" xmlns="http://www.w3.org/2000/svg">
<path d="M2.23607 22.0566C7.70223 1.65657 30.2361 0.556507 42.7361 0.0565763C55.2361 -0.443354 64.9027 2.4919 68.7361 4.05665C90.7361 13.2566 88.2361 48.5566 84.2361 65.0566C75.7361 87.0566 62.2361 87.0566 39.7361 87.5566C21.7361 87.9566 10.5694 79.39 7.23607 75.0566C-2.76393 59.4566 -0.263932 33.2233 2.23607 22.0566Z" fill="#00838F"/>
<path d="M43.3611 47.7059V53.5882C43.3611 53.9239 43.4697 54.2039 43.6868 54.4282C43.904 54.6525 44.175 54.7647 44.5 54.7647C44.825 54.7647 45.096 54.6525 45.3132 54.4282C45.5303 54.2039 45.6389 53.9239 45.6389 53.5882V47.7059H51.3333C51.6583 47.7059 51.9293 47.5937 52.1465 47.3694C52.3636 47.1451 52.4722 46.8651 52.4722 46.5294C52.4722 46.1937 52.3636 45.9137 52.1465 45.6894C51.9293 45.4651 51.6583 45.3529 51.3333 45.3529H45.6389V39.4706C45.6389 39.1365 45.5303 38.8565 45.3132 38.6306C45.096 38.4047 44.825 38.2926 44.5 38.2941C44.175 38.2957 43.904 38.4078 43.6868 38.6306C43.4697 38.8533 43.3611 39.1333 43.3611 39.4706V45.3529H37.6667C37.3432 45.3529 37.0722 45.4651 36.8535 45.6894C36.6348 45.9137 36.5263 46.1937 36.5278 46.5294C36.5293 46.8651 36.6379 47.1451 36.8535 47.3694C37.0691 47.5937 37.3402 47.7059 37.6667 47.7059H43.3611ZM27.6809 63C26.6316 63 25.7562 62.6376 25.0546 61.9129C24.3531 61.1882 24.0015 60.2839 24 59.2V33.8588C24 32.7765 24.3515 31.8729 25.0546 31.1482C25.7577 30.4235 26.6324 30.0604 27.6786 30.0588H37.6667V26.8C37.6667 25.7177 38.0182 24.8133 38.7213 24.0871C39.4244 23.3608 40.2998 22.9984 41.3476 23H47.6547C48.7025 23 49.5779 23.3624 50.281 24.0871C50.9841 24.8118 51.3349 25.7161 51.3333 26.8V30.0588H61.3214C62.3692 30.0588 63.2438 30.422 63.9454 31.1482C64.6469 31.8745 64.9985 32.7788 65 33.8612V59.2C65 60.2824 64.6485 61.1867 63.9454 61.9129C63.2423 62.6392 62.3676 63.0016 61.3214 63H27.6809ZM27.6809 60.6471H61.3214C61.6706 60.6471 61.9918 60.4965 62.2849 60.1953C62.578 59.8941 62.7237 59.5616 62.7222 59.1976V33.8612C62.7222 33.4988 62.5764 33.1663 62.2849 32.8635C61.9933 32.5608 61.6722 32.4102 61.3214 32.4118H27.6786C27.3294 32.4118 27.0082 32.5624 26.7151 32.8635C26.422 33.1647 26.2763 33.4973 26.2778 33.8612V59.2C26.2778 59.5608 26.4236 59.8925 26.7151 60.1953C27.0067 60.498 27.3278 60.6486 27.6786 60.6471M39.9444 30.0588H49.0556V26.8C49.0556 26.4392 48.9098 26.1075 48.6182 25.8047C48.3267 25.502 48.0055 25.3514 47.6547 25.3529H41.3453C40.996 25.3529 40.6749 25.5035 40.3818 25.8047C40.0887 26.1059 39.9429 26.4377 39.9444 26.8V30.0588Z" fill="white"/>
</svg>
