<svg width="26" height="26" viewBox="0 0 26 26" fill="none" xmlns="http://www.w3.org/2000/svg">
<g clip-path="url(#clip0_115_54)">
<path d="M13 13.5C15.3424 13.4962 17.5938 14.4069 19.2748 16.0382C20.9557 17.6695 21.9336 19.8925 22 22.234V24.469C21.9995 24.8417 21.8512 25.199 21.5876 25.4626C21.324 25.7262 20.9667 25.8745 20.594 25.875H5.406C5.03327 25.8745 4.67595 25.7262 4.41239 25.4626C4.14883 25.199 4.00053 24.8417 4 24.469V22.234C4.06645 19.8925 5.04426 17.6695 6.72524 16.0382C8.40623 14.4069 10.6576 13.4962 13 13.5ZM13 15.75C11.2582 15.7595 9.58653 16.4376 8.33036 17.6442C7.07418 18.8509 6.32945 20.494 6.25 22.234V23.625H19.75V22.234C19.6705 20.494 18.9258 18.8509 17.6696 17.6442C16.4135 16.4376 14.7418 15.7595 13 15.75ZM13 8.0839e-08C14.2239 -0.000197707 15.4204 0.362554 16.4381 1.04238C17.4559 1.72221 18.2492 2.68857 18.7177 3.81926C19.1862 4.94995 19.3089 6.19419 19.0702 7.39461C18.8316 8.59503 18.2423 9.69772 17.3769 10.5632C16.5116 11.4287 15.409 12.0182 14.2086 12.257C13.0082 12.4959 11.764 12.3734 10.6332 11.9051C9.50242 11.4367 8.53593 10.6436 7.85594 9.62597C7.17595 8.60834 6.813 7.41191 6.813 6.188C6.81617 4.54799 7.469 2.97604 8.62857 1.81628C9.78815 0.656519 11.36 0.00343576 13 8.0839e-08ZM13 2.25C12.2211 2.25 11.4598 2.48096 10.8122 2.91367C10.1646 3.34639 9.65982 3.96142 9.36176 4.68099C9.0637 5.40057 8.98572 6.19237 9.13767 6.95627C9.28962 7.72016 9.66467 8.42185 10.2154 8.97259C10.7662 9.52333 11.4678 9.89838 12.2317 10.0503C12.9956 10.2023 13.7874 10.1243 14.507 9.82624C15.2266 9.52818 15.8416 9.02344 16.2743 8.37584C16.707 7.72823 16.938 6.96686 16.938 6.188C16.9369 5.1439 16.5217 4.14287 15.7834 3.40458C15.0451 2.66629 14.0441 2.25106 13 2.25Z" fill="black"/>
</g>
<defs>
<clipPath id="clip0_115_54">
<rect width="26" height="26" fill="white"/>
</clipPath>
</defs>
</svg>
