<svg width="88" height="89" viewBox="0 0 88 89" fill="none" xmlns="http://www.w3.org/2000/svg">
<path d="M87.1936 31.2306C88.2271 39.1245 87.9716 44.4996 87.9716 44.4996C87.9716 44.4996 88.2271 49.8742 87.1936 57.7667C86.1095 66.0281 83.218 73.5191 78.1175 79.0052L78.117 79.006C72.6948 84.1615 65.2909 87.0879 57.1186 88.184C49.3136 89.2293 43.9998 88.9717 43.9998 88.9717C43.9998 88.9717 38.6848 89.2293 30.8812 88.184C22.7097 87.0879 15.305 84.1615 9.88281 79.006L9.88198 79.0052C4.78237 73.5191 1.88974 66.0331 0.807068 57.7667C-0.227631 49.8742 0.0279433 44.5016 0.0279433 44.5016C0.0279433 44.5016 -0.227631 39.1242 0.807068 31.2306C1.88974 22.9672 4.78265 15.4782 9.88171 9.99428H9.88253C15.3055 4.8369 22.7086 1.91218 30.8809 0.814951C38.6857 -0.231247 43.9998 0.0286288 43.9998 0.0286288C43.9998 0.0286288 49.3139 -0.23069 57.1186 0.815509C65.2901 1.91162 72.6948 4.83635 78.117 9.99456H78.1178C83.2182 15.4785 86.1098 22.9664 87.1936 31.2306Z" fill="#0066FF"/>
<path d="M48.7916 54.6017C46.3933 48.4977 29.8275 45.706 27.7909 36.0687C27.3004 33.7033 27.3497 31.8138 27.6869 29.6938C28.9256 22.0159 35.7046 19.2441 43.9999 19.2441C50.6049 19.2441 59.7234 20.8479 59.7234 31.1221V34.4349H48.0931V31.523C48.0931 28.9468 46.4823 27.2432 43.7572 27.2432C40.8385 27.2432 39.8177 28.9019 39.4954 30.4054C39.3864 30.9416 39.3218 31.9439 39.5451 32.891C40.8629 38.414 58.5634 41.3608 60.5308 51.234C60.7239 52.2414 61.1457 54.9079 60.5806 58.9823C59.4752 66.8407 52.528 69.7576 44.094 69.7576C35.3231 69.7576 27.1367 66.5849 27.1367 56.0704L27.1467 52.4169H39.654V56.9825C39.654 59.5737 41.428 61.2673 44.3516 61.2673C47.4538 61.2673 48.504 59.669 48.8955 58.1001C49.1089 57.2129 49.2477 55.7447 48.7916 54.6017Z" fill="white"/>
</svg>
